<svg width="53" height="53" viewBox="6 6 41 41" fill="none"
    xmlns="http://www.w3.org/2000/svg">
    <path d="M22.7651 29.0911C20.641 24.4341 16.6921 20.9172 11.7206 19.6053C10.1265 19.1916 8.47672 18.9852 6.84518 19.0388L7.51682 18.3439C7.61797 20.5611 8.14597 22.751 9.12813 24.7396C11.0378 28.5064 14.6216 32.0062 18.6867 33.3302C20.2333 33.7975 21.8386 33.8916 23.2921 33.222C24.6404 32.5969 25.5214 31.3548 26.2507 30.0813C27.6547 27.5485 28.7076 24.6637 30.6527 22.4061C31.0523 21.9459 31.5145 21.4654 31.9798 21.0709C33.8794 19.4232 36.3565 18.4835 38.8549 18.3207C41.5131 18.1234 44.1278 18.7242 46.5989 19.6083L46.5473 20.2051C46.1792 24.0781 44.4566 27.8216 41.6335 30.5102C38.0973 33.9321 32.8568 35.3775 28.0734 34.457C31.2202 34.7251 34.4458 34.099 37.2224 32.5959C41.7953 30.1167 44.6892 25.2504 44.9917 20.0948L45.5278 20.8919C40.7586 19.4019 35.521 19.5375 32.1174 23.6421C29.8779 26.3266 29.0273 29.791 26.9557 32.6212C26.277 33.5224 25.3778 34.37 24.3491 34.8889C24.2176 34.9678 24.0234 35.0386 23.8858 35.1014L23.6512 35.2005L23.4104 35.2784C21.0648 36.0683 18.5118 35.4918 16.3775 34.458C14.1836 33.3778 12.2648 31.8059 10.6524 29.9802C9.45787 28.6086 8.4221 27.0913 7.66955 25.4305C6.54376 22.9917 6.10578 20.3174 6.15737 17.6743L6.83305 17.6824C10.0223 17.732 13.2004 18.6383 15.894 20.3487C19.0913 22.3585 21.5644 25.5235 22.7651 29.0911Z" fill="#202020"/>
</svg>
