<svg width="17" height="17" viewBox="0 0 17 17" fill="none"
    xmlns="http://www.w3.org/2000/svg">
    <g clip-path="url(#clip0_1_5273)">
        <path d="M11.9004 2.10004C12.0842 1.91619 12.3025 1.77035 12.5427 1.67085C12.7829 1.57135 13.0404 1.52014 13.3004 1.52014C13.5604 1.52014 13.8179 1.57135 14.0581 1.67085C14.2983 1.77035 14.5165 1.91619 14.7004 2.10004C14.8842 2.28389 15.0301 2.50215 15.1296 2.74237C15.2291 2.98258 15.2803 3.24004 15.2803 3.50004C15.2803 3.76004 15.2291 4.0175 15.1296 4.25772C15.0301 4.49793 14.8842 4.71619 14.7004 4.90004L5.25039 14.35L1.40039 15.4L2.45039 11.55L11.9004 2.10004Z" stroke="#202020" stroke-width="1.4" stroke-linecap="round" stroke-linejoin="round"/>
    </g>
    <defs>
        <clipPath id="clip0_1_5273">
            <rect width="16.8" height="16.8" fill="white"/>
        </clipPath>
    </defs>
</svg>
